<?xml version="1.0" encoding="UTF-8" standalone="no"?>
<svg
   width="98.010002"
   height="16.884001"
   version="1.1"
   id="svg545"
   sodipodi:docname="sprite.810490bd.svg"
   xmlns:inkscape="http://www.inkscape.org/namespaces/inkscape"
   xmlns:sodipodi="http://sodipodi.sourceforge.net/DTD/sodipodi-0.dtd"
   xmlns="http://www.w3.org/2000/svg"
   xmlns:svg="http://www.w3.org/2000/svg">
  <sodipodi:namedview
     id="namedview545"
     pagecolor="#ffffff"
     bordercolor="#000000"
     borderopacity="0.25"
     inkscape:showpageshadow="2"
     inkscape:pageopacity="0.0"
     inkscape:pagecheckerboard="0"
     inkscape:deskcolor="#d1d1d1"
     inkscape:zoom="5.923888"
     inkscape:cx="59.673647"
     inkscape:cy="430.29173"
     inkscape:window-width="1536"
     inkscape:window-height="932"
     inkscape:window-x="0"
     inkscape:window-y="0"
     inkscape:window-maximized="1"
     inkscape:current-layer="layer3" />
  <style
     id="style1"><![CDATA[.B{fill:#fff}.C{fill:#9ab}.D{stroke-linejoin:round}.E{fill:#678}.F{fill:#000}.G{fill-rule:nonzero}.H{stroke-linecap:round}.I{opacity:.5}.J{stroke-width:1.5}.K{fill:#40bcf4}.L{stroke-width:2}.M{opacity:.25}.N{fill:#00c030}.O{opacity:.35}.P{fill:#456}.Q{fill:#567}.R{fill:#def}.S{fill:#345}.T{fill:#ff9010}.U{fill:#789}.V{opacity:.2}.W{fill:#46505b}.X{opacity:.9}.Y{stroke:#fff}.Z{fill:#00e054}.a{fill:#89a}.b{stroke:#9ab}.c{stroke:#678}.d{fill:#bcd}.e{opacity:.6}.f{fill:#66737f}.g{fill:#ff80e8}.h{fill:#435567}.i{fill:#657689}.j{opacity:.15}.k{fill:#98aabc}.l{fill:#4b5c6d}.m{stroke-width:1.79}.n{stroke:#567}.o{opacity:.352}.p{fill:#657789}.q{fill:#d8e0e8}.r{fill:#647485}.s{fill:#13181b}.t{fill:#213244}.u{fill:#ff8000}.v{fill:#2c3743}.w{fill:#14181d}.x{stroke:#91a3ac}.y{stroke:#40bcf4}.z{stroke-width:1.21}.AA{stroke-width:2.684}]]></style>
  <defs
     id="defs38" />
  <g
     inkscape:groupmode="layer"
     id="layer1"
     inkscape:label="Layer 1">
    <path
       d="m 17.531884,5.89625 h -6.158 l -1.8379991,-5.516 c -0.166,-0.507 -0.895,-0.507 -1.061,0 l -1.837,5.516 H 0.47788491 c -0.455,0.031 -0.68000004,0.812 -0.242,1.123 l 4.88599999,3.488001 -1.866,5.646 c -0.168,0.507 0.422,0.927 0.86,0.613 l 4.889,-3.488 4.8889991,3.488 c 0.438,0.314 1.028,-0.106 0.86,-0.613 l -1.866,-5.646 4.886,-3.488001 c 0.438,-0.311 0.213,-1.092 -0.241,-1.123 z m 20,0 h -6.158 l -1.838,-5.516 c -0.166,-0.507 -0.895,-0.507 -1.061,0 l -1.837,5.516 h -6.158 c -0.455,0.031 -0.68,0.812 -0.242,1.123 l 4.886,3.488001 -1.866,5.646 c -0.168,0.507 0.422,0.927 0.86,0.613 l 4.889,-3.488 4.889,3.488 c 0.438,0.314 1.028,-0.106 0.86,-0.613 l -1.866,-5.646 4.886,-3.488001 c 0.438,-0.311 0.213,-1.092 -0.241,-1.123 z m 20,0 h -6.158 l -1.838,-5.516 c -0.166,-0.507 -0.895,-0.507 -1.061,0 l -1.837,5.516 h -6.158 c -0.455,0.031 -0.68,0.812 -0.242,1.123 l 4.886,3.488001 -1.866,5.646 c -0.168,0.507 0.422,0.927 0.86,0.613 l 4.889,-3.488 4.889,3.488 c 0.438,0.314 1.028,-0.106 0.86,-0.613 l -1.866,-5.646 4.886,-3.488001 c 0.438,-0.311 0.213,-1.092 -0.241,-1.123 z m 20,0 h -6.158 l -1.838,-5.516 c -0.166,-0.507 -0.895,-0.507 -1.061,0 l -1.837,5.516 h -6.158 c -0.455,0.031 -0.68,0.812 -0.242,1.123 l 4.886,3.488001 -1.866,5.646 c -0.168,0.507 0.422,0.927 0.86,0.613 l 4.889,-3.488 4.889,3.488 c 0.438,0.314 1.028,-0.106 0.86,-0.613 l -1.866,-5.646 4.886,-3.488001 c 0.438,-0.311 0.213,-1.092 -0.241,-1.123 z m 20.000002,0 h -6.158 l -1.838,-5.516 c -0.166,-0.507 -0.895,-0.507 -1.061,0 l -1.837,5.516 h -6.158002 c -0.455,0.031 -0.68,0.812 -0.242,1.123 l 4.886,3.488001 -1.866,5.646 c -0.168,0.507 0.422,0.927 0.86,0.613 l 4.889002,-3.488 4.889,3.488 c 0.438,0.314 1.028,-0.106 0.86,-0.613 l -1.866,-5.646 4.886,-3.488001 c 0.438,-0.311 0.213,-1.092 -0.241,-1.123 z"
       class="Z"
       id="path542" />
  </g>
</svg>
